<svg xmlns="http://www.w3.org/2000/svg" viewBox="0 0 1080 1080" width="1080" height="1080"><defs><linearGradient id="7912280990758867362" x1="178.46268145602733" x2="717.8494725952206" y1="376.0661092511441" y2="376.0661092511441" gradientTransform="matrix(0.001853957,0,0,0.001920446,-0.330862165,-0.222214593)"><stop stop-color="#ff6188" /><stop offset="1" stop-color="#ab9df2" /></linearGradient><linearGradient id="2933024922011147799" x1="279.3061286559121" x2="921.0167381966332" y1="527.0884364781642" y2="527.0884364781642" gradientTransform="matrix(0.001558335,0,0,0.001219403,-0.435252471,-0.142733443)"><stop stop-color="#fc9867" /><stop offset="1" stop-color="#ab9df2" /></linearGradient></defs><g>
<rect fill="#000000" fill-opacity="0" x="0" y="0" width="1080" height="1080"/>
<g>
	<g>
		<path d="M323.730424,115.709899C323.730424,115.709899 178.462681,117.051864 178.462681,117.051864 C178.462681,117.051864 468.998117,636.42232 468.998117,636.42232 C468.998117,636.42232 626.464476,346.192228 705.197706,209.822376 C728.021356,170.290653 726.247705,115.709899 646.495238,115.709899 C618.908665,115.709899 563.348102,115.709899 563.348102,115.709899 C563.348102,115.709899 600.161433,140.19897 561.790057,206.660143 C523.769505,272.513671 468.998117,368.66293 468.998117,368.66293 C468.998117,368.66293 323.730424,115.709899 323.730424,115.709899 C323.730424,115.709899 323.730424,115.709899 323.730424,115.709899 Z" fill="url('#7912280990758867362')"/>
	</g>
	<g>
		<path d="M818.23597,211.164341C872.571768,117.051864 921.016738,117.051864 921.016738,117.051864 C921.016738,117.051864 864.676889,117.051864 820.897034,117.051864 C771.868883,117.051864 753.772671,155.116063 738.534078,181.510079 C652.808698,329.990794 447.775416,701.267092 356.617049,859.158014 C311.602784,937.125009 279.306129,937.125009 279.306129,937.125009 C279.306129,937.125009 302.266503,937.125009 349.634919,937.125009 C407.395235,937.125009 429.024371,901.446928 450.226998,864.722901 C535.600658,716.851384 729.410744,365.014145 818.23597,211.164341 Z" fill="url('#2933024922011147799')"/>
	</g>
</g></g></svg>